<?xml version="1.0" encoding="UTF-8"?>
<!DOCTYPE svg PUBLIC "-//W3C//DTD SVG 1.1//EN" "http://www.w3.org/Graphics/SVG/1.1/DTD/svg11.dtd">
<!-- Creator: CorelDRAW 2020 (64-Bit) -->
<svg xmlns="http://www.w3.org/2000/svg" xml:space="preserve" width="1376px" height="413px" version="1.1" style="shape-rendering:geometricPrecision; text-rendering:geometricPrecision; image-rendering:optimizeQuality; fill-rule:evenodd; clip-rule:evenodd"
viewBox="0 0 1374 412"
 xmlns:xlink="http://www.w3.org/1999/xlink"
 xmlns:xodm="http://www.corel.com/coreldraw/odm/2003">
 <defs>
  <style type="text/css">
   <![CDATA[
    .fil1 {fill:#3E4095}
    .fil0 {fill:#3E4095;fill-rule:nonzero}
   ]]>
  </style>
 </defs>
 <g id="Слой_x0020_1">
  <metadata id="CorelCorpID_0Corel-Layer"/>
  <g id="_1646056599152">
   <path class="fil0" d="M352 402l0 9 -41 0c-6,0 -9,-3 -9,-9l0 -43c0,-6 3,-9 9,-9l40 0 0 9 -33 0c-2,0 -3,0 -4,1 -1,1 -1,2 -1,4l0 12 37 0 0 9 -37 0 0 13c0,2 0,3 1,4 1,1 2,1 4,1l34 0zm67 -53l0 54c0,3 -1,5 -3,7 -2,1 -4,2 -7,2 -4,0 -8,-2 -10,-5l-26 -41c-1,-1 -1,-2 -1,-2 -1,0 -1,1 -1,2l0 45 -11 0 0 -54c0,-3 1,-5 3,-6 2,-1 4,-2 7,-2 5,0 8,2 10,5l26 41c0,0 0,0 0,0 0,0 0,0 0,0 0,0 0,0 0,0 0,0 0,0 0,0 1,0 1,-1 1,-2l0 -46 11 0zm65 9l-24 0c-8,0 -13,2 -16,5 -3,3 -4,9 -4,17 0,8 1,14 4,17 3,3 8,5 16,5l9 0c2,0 3,0 4,-1 1,-1 1,-2 1,-4l0 -17 12 0 0 21c0,6 -3,9 -9,9l-22 0c-5,0 -9,-1 -13,-2 -4,-2 -6,-4 -8,-7 -2,-3 -3,-6 -4,-10 -1,-4 -1,-8 -1,-12 0,-5 0,-9 1,-12 1,-4 2,-7 4,-10 2,-3 5,-5 8,-7 4,-2 8,-2 13,-2l30 0 0 9zm22 53l-12 0 0 -62 12 0 0 62zm70 -62l0 54c0,3 -1,5 -3,7 -2,1 -4,2 -7,2 -4,0 -8,-2 -10,-5l-26 -41c-1,-1 -1,-2 -1,-2 -1,0 -1,1 -1,2l0 45 -11 0 0 -54c0,-3 1,-5 3,-6 2,-1 4,-2 7,-2 5,0 8,2 10,5l26 41c0,0 0,0 0,0 0,0 0,0 0,0 0,0 0,0 0,0 0,0 0,0 0,0 1,0 1,-1 1,-2l0 -46 11 0zm60 53l0 9 -41 0c-6,0 -9,-3 -9,-9l0 -43c0,-6 3,-9 9,-9l40 0 0 9 -33 0c-2,0 -3,0 -4,1 -1,1 -1,2 -1,4l0 12 37 0 0 9 -37 0 0 13c0,2 0,3 1,4 1,1 2,1 4,1l34 0zm58 0l0 9 -41 0c-6,0 -9,-3 -9,-9l0 -43c0,-6 3,-9 9,-9l40 0 0 9 -33 0c-2,0 -3,0 -4,1 -1,1 -1,2 -1,4l0 12 37 0 0 9 -37 0 0 13c0,2 0,3 1,4 1,1 2,1 4,1l33 0zm20 9l-12 0 0 -53c0,-6 3,-9 9,-9l31 0c6,0 10,2 12,5 2,3 4,8 4,15 0,14 -5,21 -14,21l-6 0 0 0 22 21 -15 0 -20 -20c-2,-2 -3,-4 -3,-5l0 -1c0,-1 0,-2 1,-3 1,-1 2,-1 4,-1l12 0c3,0 5,-1 6,-3 1,-2 1,-5 1,-9 0,-4 -1,-6 -2,-8 -1,-2 -3,-2 -7,-2l-19 0c-2,0 -3,0 -4,1 -1,1 -1,2 -1,4l0 48zm65 0l-12 0 0 -62 12 0 0 62zm70 -62l0 54c0,3 -1,5 -3,7 -2,1 -4,2 -7,2 -4,0 -8,-2 -10,-5l-26 -41c-1,-1 -1,-2 -1,-2 -1,0 -1,1 -1,2l0 45 -11 0 0 -54c0,-3 1,-5 3,-6 2,-1 4,-2 7,-2 5,0 8,2 10,5l26 41c0,0 0,0 0,0 0,0 0,0 0,0 0,0 0,0 0,0 0,0 0,0 0,0 1,0 1,-1 1,-2l0 -46 11 0zm65 9l-24 0c-8,0 -13,2 -16,5 -3,3 -4,9 -4,17 0,8 1,14 4,17 3,3 8,5 16,5l9 0c2,0 3,0 4,-1 1,-1 1,-2 1,-4l0 -17 12 0 0 21c0,6 -3,9 -9,9l-22 0c-5,0 -9,-1 -13,-2 -4,-2 -6,-4 -8,-7 -2,-3 -3,-6 -4,-10 -1,-4 -1,-8 -1,-12 0,-5 0,-9 1,-12 1,-4 2,-7 4,-10 2,-3 5,-5 8,-7 4,-2 8,-2 13,-2l30 0 0 9zm29 53l0 -9 34 0c4,0 6,-2 6,-7 0,-3 -2,-6 -6,-7l-24 -8c-4,-1 -7,-3 -8,-6 -2,-3 -2,-6 -2,-11 0,-5 1,-8 4,-11 2,-3 6,-4 11,-4l36 0 0 9 -33 0c-2,0 -3,1 -4,2 -1,1 -1,3 -1,5 0,2 0,3 1,4 1,1 2,2 4,3l23 7c5,1 8,3 10,6 2,2 3,6 3,11 0,5 -1,9 -3,12 -2,3 -5,4 -10,4l-39 0zm110 -9l0 9 -41 0c-6,0 -9,-3 -9,-9l0 -43c0,-6 3,-9 9,-9l40 0 0 9 -33 0c-2,0 -3,0 -4,1 -1,1 -1,2 -1,4l0 12 37 0 0 9 -37 0 0 13c0,2 0,3 1,4 1,1 2,1 4,1l33 0zm20 9l-12 0 0 -53c0,-6 3,-9 9,-9l31 0c6,0 10,2 12,5 2,3 4,8 4,15 0,14 -5,21 -14,21l-6 0 0 0 22 21 -15 0 -20 -20c-2,-2 -3,-4 -3,-5l0 -1c0,-1 0,-2 1,-3 1,-1 2,-1 4,-1l12 0c3,0 5,-1 6,-3 1,-2 1,-5 1,-9 0,-4 -1,-6 -2,-8 -1,-2 -3,-2 -7,-2l-19 0c-2,0 -3,0 -4,1 -1,1 -1,2 -1,4l0 48zm59 -62l18 50c0,0 0,0 0,0 0,0 0,0 0,0 0,0 0,0 0,0 0,0 0,0 0,0 0,0 0,0 0,0 0,0 0,0 0,0 0,0 0,0 0,0 0,0 0,0 0,0l18 -50 13 0 -22 56c-2,4 -5,7 -10,7 -5,0 -8,-2 -10,-7l-22 -56 13 0zm68 62l-12 0 0 -62 12 0 0 62zm61 0l-26 0c-5,0 -9,-1 -13,-2 -4,-2 -6,-4 -8,-7 -2,-3 -3,-6 -4,-10 -1,-4 -1,-8 -1,-12 0,-5 0,-9 1,-12 1,-4 2,-7 4,-10 2,-3 5,-5 8,-7 4,-2 8,-2 13,-2l25 0 0 9 -19 0c-8,0 -13,2 -16,5 -3,3 -4,9 -4,17 0,8 1,14 4,17 3,3 8,5 16,5l20 0 0 9zm58 -9l0 9 -41 0c-6,0 -9,-3 -9,-9l0 -43c0,-6 3,-9 9,-9l40 0 0 9 -33 0c-2,0 -3,0 -4,1 -1,1 -1,2 -1,4l0 12 37 0 0 9 -37 0 0 13c0,2 0,3 1,4 1,1 2,1 4,1l34 0zm6 9l0 -9 34 0c4,0 6,-2 6,-7 0,-3 -2,-6 -6,-7l-24 -8c-4,-1 -7,-3 -8,-6 -2,-3 -2,-6 -2,-11 0,-5 1,-8 4,-11 2,-3 6,-4 11,-4l36 0 0 9 -33 0c-2,0 -3,1 -4,2 -1,1 -1,3 -1,5 0,2 0,3 1,4 1,1 2,2 4,3l23 7c5,1 8,3 10,6 2,2 3,6 3,11 0,5 -1,9 -3,12 -2,3 -5,4 -10,4l-39 0z"/>
   <g>
    <path class="fil0" d="M0 302l0 -249c0,-33 15,-49 46,-49l107 0c67,0 101,32 101,97l0 201 -47 0 0 -193c0,-45 -20,-67 -60,-67l-82 0c-6,0 -10,1 -13,4 -3,3 -4,8 -4,15l0 241 -47 0zm563 0l-156 0c-42,0 -70,-12 -85,-37 -15,-25 -23,-62 -23,-111 0,-56 10,-95 30,-118 20,-23 55,-35 105,-35 43,0 77,9 100,26 24,17 35,47 35,90 0,18 -3,31 -10,40 -7,8 -18,13 -34,13l-178 0c0,14 1,26 3,36 2,10 5,20 9,30 4,10 12,17 21,22 10,5 21,8 36,8l146 0 0 38zm-214 -172l159 0c9,0 14,-5 14,-15l0 -2c0,-50 -29,-74 -86,-74 -31,0 -53,7 -67,21 -14,14 -20,37 -20,71zm612 172l0 -249c0,-33 15,-49 46,-49l267 0c67,0 101,32 101,97l0 201 -47 0 0 -193c0,-45 -20,-67 -60,-67l-76 0 0 260 -47 0 0 -260 -118 0c-6,0 -10,1 -13,4 -3,3 -4,8 -4,15l0 241 -47 0z"/>
    <path class="fil1" d="M762 1c83,0 151,68 151,151 0,83 -68,151 -151,151 -83,0 -151,-68 -151,-151 0,-83 68,-151 151,-151zm0 48c57,0 103,46 103,103 0,57 -46,103 -103,103 -57,0 -103,-46 -103,-103 0,-57 46,-103 103,-103z"/>
   </g>
  </g>
 </g>
</svg>
